<svg width="98" height="28" viewBox="0 0 98 28" fill="none" xmlns="http://www.w3.org/2000/svg">
<rect x="0.5" y="0.5" width="95" height="27" rx="13.5" fill="white" fill-opacity="0.16" stroke="white"/>
<path d="M19.3809 10.708H16.332V19H14.2812V10.708H11.2734V9.04688H19.3809V10.708ZM23.7045 19C23.6133 18.8223 23.5472 18.6012 23.5062 18.3369C23.0277 18.8701 22.4056 19.1367 21.64 19.1367C20.9154 19.1367 20.3138 18.9271 19.8353 18.5078C19.3614 18.0885 19.1244 17.5599 19.1244 16.9219C19.1244 16.138 19.4138 15.5365 19.9925 15.1172C20.5759 14.6979 21.4167 14.486 22.515 14.4814H23.4242V14.0576C23.4242 13.7158 23.3353 13.4424 23.1576 13.2373C22.9844 13.0322 22.7087 12.9297 22.3304 12.9297C21.9977 12.9297 21.7357 13.0094 21.5443 13.1689C21.3574 13.3285 21.264 13.5472 21.264 13.8252H19.2884C19.2884 13.3968 19.4206 13.0003 19.6849 12.6357C19.9492 12.2712 20.3229 11.9863 20.806 11.7812C21.2891 11.5716 21.8314 11.4668 22.433 11.4668C23.3444 11.4668 24.0668 11.6969 24.6 12.1572C25.1377 12.613 25.4066 13.2555 25.4066 14.085V17.291C25.4112 17.9928 25.5091 18.5238 25.7005 18.8838V19H23.7045ZM22.0707 17.626C22.3623 17.626 22.6312 17.5622 22.8773 17.4346C23.1234 17.3024 23.3057 17.127 23.4242 16.9082V15.6367H22.6859C21.697 15.6367 21.1706 15.9785 21.1068 16.6621L21.1 16.7783C21.1 17.0244 21.1865 17.2272 21.3597 17.3867C21.5329 17.5462 21.7699 17.626 22.0707 17.626ZM29.7507 16.0332L29.0398 16.7441V19H27.0642V8.5H29.0398V14.3174L29.4226 13.8252L31.3161 11.6035H33.6882L31.0154 14.6865L33.9206 19H31.6511L29.7507 16.0332ZM37.9503 19.1367C36.8656 19.1367 35.9815 18.804 35.2979 18.1387C34.6189 17.4733 34.2794 16.5869 34.2794 15.4795V15.2881C34.2794 14.5452 34.4229 13.8822 34.71 13.2988C34.9971 12.7109 35.4027 12.2598 35.9268 11.9453C36.4555 11.6263 37.057 11.4668 37.7315 11.4668C38.7432 11.4668 39.5385 11.7858 40.1173 12.4238C40.7006 13.0618 40.9923 13.9665 40.9923 15.1377V15.9443H36.2823C36.3461 16.4274 36.5375 16.8148 36.8565 17.1064C37.1801 17.3981 37.588 17.5439 38.0802 17.5439C38.8412 17.5439 39.436 17.2682 39.8643 16.7168L40.835 17.8037C40.5388 18.223 40.1378 18.5511 39.6319 18.7881C39.1261 19.0205 38.5655 19.1367 37.9503 19.1367ZM37.7247 13.0664C37.3328 13.0664 37.0138 13.1986 36.7677 13.4629C36.5261 13.7272 36.3712 14.1055 36.3028 14.5977H39.0509V14.4404C39.0417 14.0029 38.9233 13.6657 38.6954 13.4287C38.4675 13.1872 38.144 13.0664 37.7247 13.0664ZM50.1727 19C50.0815 18.8223 50.0154 18.6012 49.9744 18.3369C49.4959 18.8701 48.8738 19.1367 48.1082 19.1367C47.3836 19.1367 46.782 18.9271 46.3035 18.5078C45.8296 18.0885 45.5926 17.5599 45.5926 16.9219C45.5926 16.138 45.882 15.5365 46.4607 15.1172C47.0441 14.6979 47.8849 14.486 48.9832 14.4814H49.8924V14.0576C49.8924 13.7158 49.8035 13.4424 49.6258 13.2373C49.4526 13.0322 49.1769 12.9297 48.7986 12.9297C48.466 12.9297 48.2039 13.0094 48.0125 13.1689C47.8257 13.3285 47.7322 13.5472 47.7322 13.8252H45.7566C45.7566 13.3968 45.8888 13.0003 46.1531 12.6357C46.4174 12.2712 46.7911 11.9863 47.2742 11.7812C47.7573 11.5716 48.2996 11.4668 48.9012 11.4668C49.8126 11.4668 50.535 11.6969 51.0682 12.1572C51.6059 12.613 51.8748 13.2555 51.8748 14.085V17.291C51.8794 17.9928 51.9773 18.5238 52.1688 18.8838V19H50.1727ZM48.5389 17.626C48.8305 17.626 49.0994 17.5622 49.3455 17.4346C49.5916 17.3024 49.7739 17.127 49.8924 16.9082V15.6367H49.1541C48.1652 15.6367 47.6388 15.9785 47.575 16.6621L47.5682 16.7783C47.5682 17.0244 47.6548 17.2272 47.8279 17.3867C48.0011 17.5462 48.2381 17.626 48.5389 17.626ZM64.3706 10.708H61.3218V19H59.271V10.708H56.2632V9.04688H64.3706V10.708ZM63.827 15.2334C63.827 14.4997 63.9683 13.8457 64.2509 13.2715C64.5334 12.6973 64.939 12.2529 65.4677 11.9385C66.0009 11.624 66.6184 11.4668 67.3202 11.4668C68.3182 11.4668 69.1317 11.7721 69.7606 12.3828C70.3941 12.9935 70.7473 13.8229 70.8202 14.8711L70.8339 15.377C70.8339 16.5117 70.5171 17.4232 69.8837 18.1113C69.2502 18.7949 68.4003 19.1367 67.3339 19.1367C66.2675 19.1367 65.4152 18.7949 64.7772 18.1113C64.1438 17.4277 63.827 16.498 63.827 15.3223V15.2334ZM65.8026 15.377C65.8026 16.0788 65.9348 16.6165 66.1991 16.9902C66.4634 17.3594 66.8417 17.5439 67.3339 17.5439C67.8124 17.5439 68.1861 17.3617 68.455 16.9971C68.7238 16.6279 68.8583 16.04 68.8583 15.2334C68.8583 14.5452 68.7238 14.012 68.455 13.6338C68.1861 13.2555 67.8078 13.0664 67.3202 13.0664C66.8371 13.0664 66.4634 13.2555 66.1991 13.6338C65.9348 14.0075 65.8026 14.5885 65.8026 15.377ZM76.6203 18.248C76.1327 18.8405 75.4582 19.1367 74.5969 19.1367C73.8039 19.1367 73.1978 18.9089 72.7786 18.4531C72.3638 17.9974 72.1519 17.3298 72.1428 16.4502V11.6035H74.1184V16.3818C74.1184 17.152 74.4693 17.5371 75.1711 17.5371C75.8411 17.5371 76.3013 17.3047 76.552 16.8398V11.6035H78.5344V19H76.675L76.6203 18.248ZM84.3209 13.4561C84.052 13.4196 83.815 13.4014 83.61 13.4014C82.8626 13.4014 82.3727 13.6543 82.1402 14.1602V19H80.1646V11.6035H82.0309L82.0855 12.4854C82.482 11.8063 83.0312 11.4668 83.733 11.4668C83.9518 11.4668 84.1568 11.4964 84.3482 11.5557L84.3209 13.4561Z" fill="white"/>
</svg>
